<svg xmlns="http://www.w3.org/2000/svg" xmlns:xlink="http://www.w3.org/1999/xlink" width="150" height="72" viewBox="0 0 150 72"><defs><clipPath id="a"><rect width="150" height="72" transform="translate(6251 -3681)" fill="none" stroke="#707070" stroke-width="1"/></clipPath></defs><g transform="translate(-6251 3681)" clip-path="url(#a)"><g transform="translate(6251 -3681)"><circle cx="1.5" cy="1.5" r="1.5" transform="translate(11)" fill="#00a9f3"/><circle cx="1.5" cy="1.5" r="1.5" transform="translate(11 34)" fill="#00a9f3"/><circle cx="1.5" cy="1.5" r="1.5" transform="translate(0 17)" fill="#00a9f3"/><circle cx="1.5" cy="1.5" r="1.5" transform="translate(0 53)" fill="#00a9f3"/><circle cx="1.5" cy="1.5" r="1.5" transform="translate(35)" fill="#00a9f3"/><circle cx="1.5" cy="1.5" r="1.5" transform="translate(35 34)" fill="#00a9f3"/><circle cx="1.5" cy="1.5" r="1.5" transform="translate(24 17)" fill="#00a9f3"/><circle cx="1.5" cy="1.5" r="1.5" transform="translate(24 53)" fill="#00a9f3"/><circle cx="1.5" cy="1.5" r="1.5" transform="translate(59)" fill="#00a9f3"/><circle cx="1.5" cy="1.5" r="1.5" transform="translate(59 34)" fill="#00a9f3"/><circle cx="1.5" cy="1.5" r="1.5" transform="translate(48 17)" fill="#00a9f3"/><circle cx="1.5" cy="1.5" r="1.5" transform="translate(48 53)" fill="#00a9f3"/><circle cx="1.5" cy="1.5" r="1.5" transform="translate(83)" fill="#00a9f3"/><circle cx="1.5" cy="1.5" r="1.5" transform="translate(83 34)" fill="#00a9f3"/><circle cx="1.5" cy="1.5" r="1.5" transform="translate(72 17)" fill="#00a9f3"/><circle cx="1.5" cy="1.5" r="1.5" transform="translate(72 53)" fill="#00a9f3"/><circle cx="1.5" cy="1.5" r="1.5" transform="translate(107)" fill="#00a9f3"/><circle cx="1.5" cy="1.5" r="1.5" transform="translate(107 34)" fill="#00a9f3"/><circle cx="1.5" cy="1.5" r="1.5" transform="translate(96 17)" fill="#00a9f3"/><circle cx="1.5" cy="1.5" r="1.5" transform="translate(96 53)" fill="#00a9f3"/><circle cx="1.5" cy="1.5" r="1.5" transform="translate(131)" fill="#00a9f3"/><circle cx="1.5" cy="1.5" r="1.5" transform="translate(131 34)" fill="#00a9f3"/><circle cx="1.5" cy="1.5" r="1.5" transform="translate(120 17)" fill="#00a9f3"/><circle cx="1.5" cy="1.5" r="1.5" transform="translate(120 53)" fill="#00a9f3"/></g></g></svg>
